<svg xmlns="http://www.w3.org/2000/svg" viewBox="0 0 524.41 88.59">
  <defs>
    <style>
      .a{fill:#003741}.b{fill:#f07814}.c{fill:#e6000f}
    </style>
  </defs>
  <path class="a" d="M109 18.78c-8.75 0-15.11 6.24-15.11 14.85v22.71a1.57 1.57 0 0 0 1.57 1.57h1.88a1.57 1.57 0 0 0 1.57-1.57V44.21h20.19v12.13a1.57 1.57 0 0 0 1.57 1.57h1.88a1.57 1.57 0 0 0 1.57-1.57V33.63c0-8.75-6.22-14.85-15.12-14.85m10.1 19.93H98.94v-5.08c0-5.85 4.06-9.79 10.09-9.79s10.1 3.85 10.1 9.79zM159.53 27.89a11.09 11.09 0 0 0-9 4.25 11.59 11.59 0 0 0-20.53 7.3v16.9a1.56 1.56 0 0 0 1.56 1.57h1.94a1.57 1.57 0 0 0 1.5-1.57v-16.9a6.5 6.5 0 0 1 13 0v16.9a1.57 1.57 0 0 0 1.57 1.57h1.88a1.57 1.57 0 0 0 1.57-1.57v-16.9a6.51 6.51 0 0 1 13 0v16.9a1.57 1.57 0 0 0 1.57 1.57h1.88a1.57 1.57 0 0 0 1.57-1.57v-16.9a11.17 11.17 0 0 0-11.55-11.55M189.79 39.82c-6.1-.86-7.23-1.77-7.25-3.26a2.58 2.58 0 0 1 .83-1.92 8.08 8.08 0 0 1 5.63-1.83c2.7 0 6.14.77 7.26 4.44a1.57 1.57 0 0 0 1.5 1.11h1.94a1.57 1.57 0 0 0 1.52-1.93C200 31 195.48 27.89 189 27.89c-7.55 0-11.5 4.37-11.5 8.73.13 6.47 6.94 7.46 11.59 8.14 7.07 1 7.72 2.72 7.77 4.32a3.07 3.07 0 0 1-.84 2.4 8.74 8.74 0 0 1-6.2 2.12c-2.83 0-7.72-.68-8.71-5.23a1.55 1.55 0 0 0-1.53-1.23h-1.88a1.58 1.58 0 0 0-1.2.55 1.61 1.61 0 0 0-.35 1.27c1 6 6.1 9.56 13.72 9.56 4.09 0 7.56-1.25 9.78-3.54a8.49 8.49 0 0 0 2.28-6.11c-.35-7.26-8.27-8.44-12.09-9M218.09 33.57a1.57 1.57 0 0 0 1.57-1.57v-1.88a1.57 1.57 0 0 0-1.57-1.57h-5.51v-4A1.57 1.57 0 0 0 211 23h-1.88a1.57 1.57 0 0 0-1.57 1.57v4h-2a1.57 1.57 0 0 0-1.55 1.55V32a1.57 1.57 0 0 0 1.57 1.57h2v13.71c0 3.58 1.1 6.48 3.19 8.39a9.13 9.13 0 0 0 6.32 2.33c.38 0 .76 0 1.15-.05a1.58 1.58 0 0 0 1.43-1.57v-1.77A1.59 1.59 0 0 0 218 53a5.25 5.25 0 0 1-4-1.16c-1.22-1.18-1.48-3.15-1.48-4.6V33.57zM270 28a12.81 12.81 0 0 0-9.25 2.27v-.15a1.57 1.57 0 0 0-1.57-1.57h-1.94a1.56 1.56 0 0 0-1.56 1.57v26.22a1.56 1.56 0 0 0 1.56 1.57h1.94a1.57 1.57 0 0 0 1.57-1.57V40.51a7.77 7.77 0 0 1 2.42-5.85c1.46-1.41 3.77-2 6.51-1.81a1.56 1.56 0 0 0 1.71-1.56v-1.73A1.57 1.57 0 0 0 270 28M369.21 27.89a11.09 11.09 0 0 0-9 4.25 11.6 11.6 0 0 0-20.57 7.3v16.9a1.57 1.57 0 0 0 1.57 1.57h1.94a1.56 1.56 0 0 0 1.56-1.57v-16.9a6.51 6.51 0 0 1 13 0v16.9a1.57 1.57 0 0 0 1.57 1.57h1.88a1.57 1.57 0 0 0 1.57-1.57v-16.9a6.51 6.51 0 0 1 13 0v16.9a1.56 1.56 0 0 0 1.56 1.57h1.89a1.57 1.57 0 0 0 1.57-1.57v-16.9a11.17 11.17 0 0 0-11.55-11.55M428.59 19.44h-1.88a1.56 1.56 0 0 0-1.57 1.56v22.72c0 5.94-4 9.78-10.09 9.78S405 49.57 405 43.72V21a1.57 1.57 0 0 0-1.57-1.56h-1.93a1.56 1.56 0 0 0-1.56 1.56v22.72c0 8.6 6.35 14.85 15.11 14.85s15.11-6.11 15.11-14.85V21a1.56 1.56 0 0 0-1.57-1.56M470.5 18.52A12.8 12.8 0 0 0 460 24a12.86 12.86 0 0 0-10.48-5.45 13 13 0 0 0-13 13v24.8a1.57 1.57 0 0 0 1.57 1.57H440a1.56 1.56 0 0 0 1.56-1.57V31.54a8 8 0 1 1 16 0v24.8a1.57 1.57 0 0 0 1.44 1.57h1.89a1.56 1.56 0 0 0 1.56-1.57v-24.8a8 8 0 1 1 16 0v24.8a1.57 1.57 0 0 0 1.55 1.57h1.89a1.56 1.56 0 0 0 1.56-1.57v-24.8a13 13 0 0 0-13-13M333.25 35.49a14.72 14.72 0 0 0-5.43-5.49 14.89 14.89 0 0 0-7.64-2 15.23 15.23 0 0 0-7.71 2 14.51 14.51 0 0 0-5.47 5.49 15.48 15.48 0 0 0-2 7.75 16.35 16.35 0 0 0 1.88 7.76 13.91 13.91 0 0 0 5 5.46 13.54 13.54 0 0 0 7.16 2h.57a14.36 14.36 0 0 0 5-.9l.57-.19a11.2 11.2 0 0 0 1.22-.59l.26-.15a14.37 14.37 0 0 0 3.34-2.69v2.58a1.63 1.63 0 0 0 1.62 1.63h2a1.62 1.62 0 0 0 1.62-1.63V43.24a15.3 15.3 0 0 0-2-7.75m-4.69 12.95a9.61 9.61 0 0 1-13.32 3.64 9.66 9.66 0 0 1-3.48-3.64 10.63 10.63 0 0 1-1.28-5.2 10.74 10.74 0 0 1 1.29-5.24 9.53 9.53 0 0 1 3.48-3.67A9.48 9.48 0 0 1 328.56 38a10.84 10.84 0 0 1 1.26 5.23 10.73 10.73 0 0 1-1.26 5.2M299.87 16.89H298a1.57 1.57 0 0 0-1.57 1.57v13.32a13.92 13.92 0 0 0-9.63-3.89c-8.08 0-14.66 6.91-14.66 15.42a15 15 0 0 0 13.26 15.14 13 13 0 0 0 1.4.07 12.75 12.75 0 0 0 1.38-.07 14.64 14.64 0 0 0 13.26-14.4V18.46a1.56 1.56 0 0 0-1.56-1.57m-22.74 26.42c0-5.71 4.33-10.35 9.64-10.35s9.63 4.64 9.63 10.35-4.32 10.19-9.63 10.19a9.94 9.94 0 0 1-9.64-10.19M245.66 50.14a1.46 1.46 0 0 0-2 .22c-1.62 1.89-3.93 2.83-7 2.83a9.84 9.84 0 0 1-9.82-8.72h22.6a1.57 1.57 0 0 0 1.56-1.55 15.73 15.73 0 0 0-4.53-11 14.12 14.12 0 0 0-10.12-4.31c-8.08 0-14.66 6.92-14.66 15.42a14.92 14.92 0 0 0 15 15.21c4.63 0 8.36-1.64 10.92-4.7a1.5 1.5 0 0 0-.26-2.16zm-9.3-17.49a9.71 9.71 0 0 1 9 6.8h-18.02a9.61 9.61 0 0 1 9-6.8M521.55 46.19a1.47 1.47 0 0 0-2 .47 13.78 13.78 0 0 1-11.68 6.84c-7.72 0-14-6.72-14-15s6.29-14.93 14-14.93a13.74 13.74 0 0 1 11.94 7.07 1.46 1.46 0 0 0 2 .55l1.87-1a1.49 1.49 0 0 0 .59-2.07 18.66 18.66 0 0 0-16.35-9.58c-10.49 0-19 9-19 20s8.54 20 19 20a19 19 0 0 0 16-9.24 1.46 1.46 0 0 0-.52-2z"/>
  <path class="b" d="M127.82 71.22H127a.53.53 0 0 0-.53.53v1.45a.52.52 0 0 0 .53.52h.85a.52.52 0 0 0 .53-.52v-1.45a.53.53 0 0 0-.53-.53M183.49 71.22h-.85a.53.53 0 0 0-.53.53v1.45a.52.52 0 0 0 .53.52h.85a.52.52 0 0 0 .53-.52v-1.45a.53.53 0 0 0-.53-.53M212.48 71.22h-.85a.53.53 0 0 0-.53.53v1.45a.52.52 0 0 0 .53.52h.85a.52.52 0 0 0 .53-.52v-1.45a.53.53 0 0 0-.53-.53M288.39 71.22h-.85a.53.53 0 0 0-.53.53v1.45a.52.52 0 0 0 .53.52h.85a.52.52 0 0 0 .53-.52v-1.45a.53.53 0 0 0-.53-.53M106.73 71.22h-.85a.53.53 0 0 0-.53.53V82a4.76 4.76 0 0 1-9.52 0V71.75a.53.53 0 0 0-.53-.53h-.85a.53.53 0 0 0-.53.53V82a6.39 6.39 0 0 0 6.67 6.55 6.32 6.32 0 0 0 6.67-6.55V71.75a.53.53 0 0 0-.53-.53M116.93 75.05a5.51 5.51 0 0 0-3.76 1.38v-.55a.53.53 0 0 0-.53-.53h-.86a.52.52 0 0 0-.52.53v11.88a.52.52 0 0 0 .52.53h.86a.53.53 0 0 0 .53-.53v-7.17a3.61 3.61 0 0 1 3.74-3.65c2.25 0 3.49 1.29 3.49 3.65v7.17a.52.52 0 0 0 .52.53h.86a.52.52 0 0 0 .52-.53v-7.17c0-3.42-2-5.54-5.37-5.54M127.82 75.35H127a.53.53 0 0 0-.53.53v11.88a.53.53 0 0 0 .53.53h.85a.52.52 0 0 0 .53-.53V75.88a.53.53 0 0 0-.53-.53M141.63 75.35h-.93a.54.54 0 0 0-.49.34l-3.61 9.42-3.6-9.42a.53.53 0 0 0-.49-.34h-.93a.54.54 0 0 0-.43.23.53.53 0 0 0-.06.49L135.64 88a.52.52 0 0 0 .49.34h.93a.52.52 0 0 0 .49-.34l4.57-11.88a.53.53 0 0 0-.06-.49.54.54 0 0 0-.43-.23M150 75.05a6.76 6.76 0 0 0 .14 13.52 5.94 5.94 0 0 0 6-4.33.54.54 0 0 0-.08-.48.52.52 0 0 0-.42-.22h-.9a.53.53 0 0 0-.5.35 4 4 0 0 1-4.14 2.77 4.65 4.65 0 0 1-4.66-4.32h10.45a.53.53 0 0 0 .53-.52 7 7 0 0 0-2-4.87 6.26 6.26 0 0 0-4.46-1.9m-4.34 5.38a4.46 4.46 0 0 1 8.69 0zM165.78 75.1a5.55 5.55 0 0 0-4.35 1.23v-.45a.53.53 0 0 0-.53-.53h-.9a.53.53 0 0 0-.53.53v11.88a.53.53 0 0 0 .53.53h.88a.53.53 0 0 0 .53-.53v-7.17a3.69 3.69 0 0 1 1.15-2.79 3.88 3.88 0 0 1 3.1-.86.55.55 0 0 0 .4-.14.52.52 0 0 0 .17-.39v-.79a.53.53 0 0 0-.47-.52M173.41 80.46c-2.91-.41-3.43-.86-3.45-1.66a1.37 1.37 0 0 1 .44-1 3.79 3.79 0 0 1 2.68-.89 3.27 3.27 0 0 1 3.47 2.15.53.53 0 0 0 .5.37h.88a.51.51 0 0 0 .41-.2.52.52 0 0 0 .1-.45c-.56-2.37-2.52-3.73-5.38-3.73-3.3 0-5 1.89-5 3.77.06 2.78 2.93 3.2 5.09 3.51 3 .43 3.65 1.15 3.68 2.13a1.54 1.54 0 0 1-.43 1.23 4.12 4.12 0 0 1-2.94 1c-1.34 0-3.65-.33-4.12-2.52a.54.54 0 0 0-.52-.42h-.85a.54.54 0 0 0-.52.62c.42 2.62 2.68 4.18 6 4.18a5.92 5.92 0 0 0 4.31-1.55 3.65 3.65 0 0 0 1-2.64c-.15-3.14-3.51-3.64-5.32-3.91M183.47 75.35h-.85a.53.53 0 0 0-.53.53v11.88a.52.52 0 0 0 .53.53h.85a.53.53 0 0 0 .53-.53V75.88a.53.53 0 0 0-.53-.53M193 75.35h-2.7v-2a.53.53 0 0 0-.53-.53h-.85a.53.53 0 0 0-.53.53v2h-1.09a.53.53 0 0 0-.53.53v.85a.53.53 0 0 0 .53.53h1.09v6.4a4.78 4.78 0 0 0 1.39 3.66 3.91 3.91 0 0 0 2.74 1 4.43 4.43 0 0 0 .51 0 .53.53 0 0 0 .48-.53V87a.52.52 0 0 0-.17-.38.58.58 0 0 0-.38-.15 2.53 2.53 0 0 1-1.93-.58 2.93 2.93 0 0 1-.73-2.21v-6.4h2.7a.53.53 0 0 0 .53-.53v-.85a.53.53 0 0 0-.53-.53M206.89 85.83v-6.72c0-2.54-1.95-4.06-5.21-4.06-2.9 0-4.9 1.37-5.5 3.75a.53.53 0 0 0 .1.45.51.51 0 0 0 .41.2h.88a.52.52 0 0 0 .5-.37c.56-1.77 2.27-2.14 3.61-2.14 1.51 0 3.3.37 3.3 2.17 0 .93-1.2 1.2-3.9 1.46-1.66.15-5.54.5-5.54 4.08 0 2.64 2.51 3.85 4.85 3.85a7.3 7.3 0 0 0 4.67-1.5 3.78 3.78 0 0 0 .3.95.52.52 0 0 0 .47.3h.88a.54.54 0 0 0 .44-.23.51.51 0 0 0 0-.49 6 6 0 0 1-.31-1.74m-6.5.76s-2.87 0-2.87-2c0-.89.29-1.88 3.74-2.22a11.39 11.39 0 0 0 3.72-.71v1.76c0 2.17-2.31 3.14-4.59 3.14M433.63 85.83v-6.72c0-2.54-1.95-4.06-5.21-4.06-2.9 0-4.91 1.37-5.5 3.75a.52.52 0 0 0 .09.45.53.53 0 0 0 .42.2h.88a.53.53 0 0 0 .5-.37c.56-1.77 2.27-2.14 3.61-2.14 1.5 0 3.3.37 3.3 2.17 0 .93-1.21 1.2-3.91 1.46-1.65.15-5.53.5-5.53 4.08 0 2.64 2.51 3.85 4.84 3.85a7.31 7.31 0 0 0 4.68-1.5 3.78 3.78 0 0 0 .29.95.55.55 0 0 0 .48.3h.88a.52.52 0 0 0 .43-.23.54.54 0 0 0 .06-.49 5.66 5.66 0 0 1-.31-1.74m-6.51.76s-2.86 0-2.86-2c0-.89.29-1.88 3.74-2.22a11.49 11.49 0 0 0 3.72-.71v1.76c0 2.17-2.31 3.14-4.6 3.14M212.48 75.35h-.85a.53.53 0 0 0-.53.53v11.88a.53.53 0 0 0 .53.53h.85a.53.53 0 0 0 .53-.53V75.88a.53.53 0 0 0-.53-.53M223.53 75.1a5.58 5.58 0 0 0-4.36 1.23v-.45a.53.53 0 0 0-.53-.53h-.87a.53.53 0 0 0-.53.53v11.88a.52.52 0 0 0 .53.53h.87a.53.53 0 0 0 .53-.53v-7.17a3.7 3.7 0 0 1 1.16-2.79 3.86 3.86 0 0 1 3.09-.86.53.53 0 0 0 .4-.14.52.52 0 0 0 .17-.39v-.79a.53.53 0 0 0-.46-.52M251.07 71.22h-.92a.53.53 0 0 0-.49.32l-6.09 13.87-6.1-13.87a.51.51 0 0 0-.48-.32h-.9a.53.53 0 0 0-.53.53v16a.53.53 0 0 0 .53.53h.91a.52.52 0 0 0 .52-.53V76.26l5.1 11.74a.54.54 0 0 0 .49.31h.94a.54.54 0 0 0 .49-.31l5.13-11.71v11.47a.52.52 0 0 0 .52.53h.88a.53.53 0 0 0 .53-.53v-16a.53.53 0 0 0-.53-.53M261.36 75.05a6.76 6.76 0 0 0 .14 13.52 5.94 5.94 0 0 0 6-4.33.54.54 0 0 0-.07-.48.53.53 0 0 0-.43-.22h-.9a.52.52 0 0 0-.49.35 4 4 0 0 1-4.15 2.77 4.65 4.65 0 0 1-4.66-4.32h10.5a.52.52 0 0 0 .52-.52 6.94 6.94 0 0 0-2-4.87 6.2 6.2 0 0 0-4.46-1.9M257 80.43a4.45 4.45 0 0 1 8.68 0zM340.06 75.05a6.76 6.76 0 0 0 .14 13.52 5.94 5.94 0 0 0 6-4.33.54.54 0 0 0-.08-.48.53.53 0 0 0-.43-.22h-.89a.53.53 0 0 0-.5.35 4 4 0 0 1-4.14 2.77 4.65 4.65 0 0 1-4.66-4.32H346a.53.53 0 0 0 .53-.52 7 7 0 0 0-2-4.87 6.18 6.18 0 0 0-4.45-1.9m-4.34 5.38a4.46 4.46 0 0 1 8.69 0zM282.25 70.07h-.85a.52.52 0 0 0-.53.52v6.49a6.17 6.17 0 0 0-4.55-2 6.77 6.77 0 0 0 0 13.52 6.17 6.17 0 0 0 4.55-2v1.2a.53.53 0 0 0 .53.53h.85a.53.53 0 0 0 .53-.53V70.59a.52.52 0 0 0-.53-.52m-5.93 16.59a4.85 4.85 0 1 1 4.55-4.8 4.68 4.68 0 0 1-4.55 4.8M288.39 75.35h-.85a.53.53 0 0 0-.53.53v11.88a.52.52 0 0 0 .53.53h.85a.53.53 0 0 0 .53-.53V75.88a.53.53 0 0 0-.53-.53M298.23 80.46c-2.92-.41-3.44-.86-3.45-1.66a1.36 1.36 0 0 1 .43-1 3.8 3.8 0 0 1 2.69-.89 3.27 3.27 0 0 1 3.46 2.15.54.54 0 0 0 .51.37h.87a.52.52 0 0 0 .42-.2.56.56 0 0 0 .1-.45c-.56-2.37-2.53-3.73-5.39-3.73-3.3 0-5 1.89-5 3.77 0 2.78 2.93 3.2 5.09 3.51 3 .43 3.65 1.15 3.68 2.13a1.61 1.61 0 0 1-.43 1.23 4.16 4.16 0 0 1-2.95 1c-1.33 0-3.65-.33-4.12-2.52a.53.53 0 0 0-.51-.42h-.86a.53.53 0 0 0-.4.19.55.55 0 0 0-.12.43c.42 2.62 2.68 4.18 6 4.18a5.9 5.9 0 0 0 4.3-1.55 3.65 3.65 0 0 0 1-2.64c-.15-3.14-3.51-3.64-5.32-3.91M325.35 75.05a5.55 5.55 0 0 0-3.77 1.38v-5.84a.52.52 0 0 0-.52-.52h-.86a.52.52 0 0 0-.52.52v17.17a.52.52 0 0 0 .52.53h.86a.52.52 0 0 0 .52-.53v-7.17a3.62 3.62 0 0 1 3.75-3.65c2.25 0 3.49 1.29 3.49 3.65v7.17a.52.52 0 0 0 .52.53h.86a.52.52 0 0 0 .52-.53v-7.17c0-3.42-2.05-5.54-5.37-5.54M380.83 75.05a6.76 6.76 0 0 0 .17 13.52 5.94 5.94 0 0 0 6-4.33.54.54 0 0 0-.07-.48.53.53 0 0 0-.43-.22h-.9a.54.54 0 0 0-.5.35 4 4 0 0 1-4.1 2.77 4.65 4.65 0 0 1-4.66-4.32h10.45a.52.52 0 0 0 .53-.52 6.94 6.94 0 0 0-2-4.87 6.22 6.22 0 0 0-4.46-1.9m-4.33 5.38a4.55 4.55 0 0 1 4.3-3.43 4.6 4.6 0 0 1 4.35 3.45zM396 75.05a5.51 5.51 0 0 0-3.76 1.38v-.55a.53.53 0 0 0-.53-.53h-.85a.53.53 0 0 0-.53.53v11.88a.52.52 0 0 0 .53.53h.85a.53.53 0 0 0 .53-.53v-7.17a3.62 3.62 0 0 1 3.76-3.65c2.25 0 3.49 1.29 3.49 3.65v7.17a.52.52 0 0 0 .52.53h.86a.53.53 0 0 0 .53-.53v-7.17c0-3.42-2.06-5.54-5.38-5.54M410.19 75.35h-2.68v-2a.53.53 0 0 0-.53-.53h-.85a.53.53 0 0 0-.53.53v2h-1.09a.53.53 0 0 0-.53.53v.85a.53.53 0 0 0 .53.53h1.09v6.4a4.78 4.78 0 0 0 1.4 3.66 3.91 3.91 0 0 0 2.74 1 4.35 4.35 0 0 0 .51 0 .53.53 0 0 0 .48-.53V87a.55.55 0 0 0-.16-.38.61.61 0 0 0-.39-.15 2.51 2.51 0 0 1-1.93-.58 2.93 2.93 0 0 1-.73-2.21v-6.4h2.68a.53.53 0 0 0 .53-.53v-.85a.53.53 0 0 0-.53-.53M420.24 75.1a5.57 5.57 0 0 0-4.35 1.23v-.45a.53.53 0 0 0-.53-.53h-.88a.53.53 0 0 0-.53.53v11.88a.53.53 0 0 0 .53.53h.88a.53.53 0 0 0 .53-.53v-7.17A3.69 3.69 0 0 1 417 77.8a3.88 3.88 0 0 1 3.1-.86.55.55 0 0 0 .4-.14.52.52 0 0 0 .17-.39v-.79a.53.53 0 0 0-.47-.52M371.61 84.81a.5.5 0 0 0-.71 0 6.29 6.29 0 0 1-4.38 1.84 7 7 0 0 1 0-13.92 6.33 6.33 0 0 1 4.63 2 .5.5 0 0 0 .73 0l.65-.65a.49.49 0 0 0 0-.69 8.21 8.21 0 0 0-6-2.6 8.87 8.87 0 0 0 0 17.74 8.24 8.24 0 0 0 5.75-2.41.49.49 0 0 0 0-.7zM316.42 85.11a.49.49 0 0 0-.72 0 4.25 4.25 0 0 1-3.38 1.53 4.85 4.85 0 0 1 0-9.68 4.24 4.24 0 0 1 3.35 1.54.49.49 0 0 0 .72 0l.67-.67a.49.49 0 0 0 0-.66 6.15 6.15 0 0 0-4.78-2.16 6.77 6.77 0 0 0 0 13.52 6.15 6.15 0 0 0 4.79-2.15.51.51 0 0 0 0-.67z"/>
  <path class="c" d="M19.11 13.64v31.11c0 11.93 2.08 17.4 6 20.65a26.76 26.76 0 0 0 8.43 4.27V41.89a35.66 35.66 0 0 0-14.43-28.25M52.46 13.64v31.11c0 11.93-2.08 17.4-6 20.65A26.82 26.82 0 0 1 38 69.67V41.89a35.68 35.68 0 0 1 14.46-28.25"/>
  <path class="b" d="M35.79 88.58c19.73 0 35.78-15.7 35.78-36.37V6.69a35.51 35.51 0 0 0-14.43 4V48.3c0 25-18 25.82-21.35 25.82s-21.35-.9-21.35-25.82V10.71A35.55 35.55 0 0 0 0 6.69v45.52c0 20.67 16.06 36.37 35.79 36.37"/>
  <path class="a" d="M35.79 24.82a39.93 39.93 0 0 1 10.53-13.23A35.87 35.87 0 0 0 35.79 0a35.76 35.76 0 0 0-10.53 11.59 40.18 40.18 0 0 1 10.53 13.23"/>
</svg>